# File created by Blade
# Date/Time:  Tue Jan 27 20:08:00 2015
#---------------------------------------------------------
:version 1.10
:name HOM
:units
  mass 1.0
  length 1.000000
  angle deg
:documentation
     Acclaim Skeleton File
:root
   axis xyz
   order TX TY TZ RX RY RZ
   position 0.000000 0.000000 0.000000
   orientation 0 0 0
:bonedata
   begin
      id 1
      name Spine_dum
      direction 0.000000 1.000000 0.000000
      length 6.116652
      axis 0.0 0.0 0.0 xyz
   end
   begin
      id 2
      name LeftUpLeg_dum
      direction 1.000000 0.000000 0.000000
      length 4.711765
      axis 0.0 0.0 0.0 xyz
   end
   begin
      id 3
      name RightUpLeg_dum
      direction -1.000000 0.000000 0.000000
      length 4.711765
      axis 0.0 0.0 0.0 xyz
   end
   begin
      id 4
      name Spine
      direction 0.000000 1.000000 0.000000
      length 0.000000
      axis 0.0 0.0 0.0 xyz
      dof rx ry rz
   end
   begin
      id 5
      name Spine_dum1
      direction 0.000000 1.000000 0.000000
      length 15.225563
      axis 0.0 0.0 0.0 xyz
   end
   begin
      id 6
      name Spine_dum2
      direction 0.000000 1.000000 0.000000
      length 8.977654
      axis 0.0 0.0 0.0 xyz
   end
   begin
      id 7
      name Spine_dum3
      direction 0.000000 1.000000 0.000000
      length 8.977654
      axis 0.0 0.0 0.0 xyz
   end
   begin
      id 8
      name Head
      direction 0.000000 1.000000 0.000000
      length 4.527550
      axis 0.0 0.0 0.0 xyz
      dof rx ry rz
   end
   begin
      id 9
      name LeftShoulder
      direction 1.000000 0.000000 0.000000
      length 7.110130
      axis 0.0 0.0 -90.0 xyz
      dof rx ry rz
   end
   begin
      id 10
      name LeftArm
      direction 1.000000 0.000000 0.000000
      length 10.398341
      axis 0.0 0.0 -90.0 xyz
      dof rx ry rz
   end
   begin
      id 11
      name LeftForeArm
      direction 1.000000 0.000000 0.000000
      length 8.888997
      axis 0.0 0.0 -90.0 xyz
      dof ry rz rx
   end
   begin
      id 12
      name LeftHand
      direction 0.000000 0.000000 0.000000
      length 0.000000
      axis 0.0 0.0 -90.0 xyz
      dof rx ry rz
   end
   begin
      id 13
      name LeftHand_dum1
      direction 0.000000 0.000000 0.000000
      length 0.000000
      axis 0.0 0.0 -90.0 xyz
   end
   begin
      id 14
      name LeftHand_dum2
      direction 1.000000 0.000000 0.000000
      length 3.937000
      axis 0.0 0.0 -90.0 xyz
   end
   begin
      id 15
      name LeftHandThumb1
      direction 0.000000 0.000000 1.000000
      length 3.937000
      axis 0.0 0.0 -90.0 xyz
      dof rx rz ry
   end
   begin
      id 16
      name RightShoulder
      direction -1.000000 0.000000 0.000000
      length 7.110130
      axis 0.0 0.0 90.0 xyz
      dof rx ry rz
   end
   begin
      id 17
      name RightArm
      direction -1.000000 0.000000 0.000000
      length 10.398341
      axis 0.0 0.0 90.0 xyz
      dof rx ry rz
   end
   begin
      id 18
      name RightForeArm
      direction -1.000000 0.000000 0.000000
      length 8.888997
      axis 0.0 0.0 90.0 xyz
      dof ry rz rx
   end
   begin
      id 19
      name RightHand
      direction 0.000000 0.000000 0.000000
      length 0.000000
      axis 0.0 0.0 90.0 xyz
      dof rx ry rz
   end
   begin
      id 20
      name RightHand_dum1
      direction 0.000000 0.000000 0.000000
      length 0.000000
      axis 0.0 0.0 90.0 xyz
   end
   begin
      id 21
      name RightHand_dum2
      direction -1.000000 0.000000 0.000000
      length 3.937000
      axis 0.0 0.0 90.0 xyz
   end
   begin
      id 22
      name RightHandThumb1
      direction 0.000000 0.000000 1.000000
      length 3.937000
      axis 0.0 0.0 90.0 xyz
      dof rx rz ry
   end
   begin
      id 23
      name LeftUpLeg
      direction 0.000000 -1.000000 0.000000
      length 15.510451
      axis 0.0 0.0 0.0 xyz
      dof rx ry rz
   end
   begin
      id 24
      name LeftLeg
      direction 0.000000 -1.000000 0.000000
      length 14.858061
      axis 0.0 0.0 0.0 xyz
      dof rx ry rz
   end
   begin
      id 25
      name LeftFoot
      direction 0.000000 -0.258819 0.965926
      length 5.128852
      axis 15.0 0.0 0.0 xyz
      dof rx ry rz
   end
   begin
      id 26
      name LeftToeBase
      direction 0.000000 0.000000 1.000000
      length 2.952750
      axis 0.0 0.0 0.0 xyz
      dof rx ry rz
   end
   begin
      id 27
      name RightUpLeg
      direction 0.000000 -1.000000 0.000000
      length 15.510451
      axis 0.0 0.0 0.0 xyz
      dof rx ry rz
   end
   begin
      id 28
      name RightLeg
      direction 0.000000 -1.000000 0.000000
      length 14.858061
      axis 0.0 0.0 0.0 xyz
      dof rx ry rz
   end
   begin
      id 29
      name RightFoot
      direction 0.000000 -0.258819 0.965926
      length 5.128852
      axis 15.0 0.0 0.0 xyz
      dof rx ry rz
   end
   begin
      id 30
      name RightToeBase
      direction 0.000000 0.000000 1.000000
      length 2.952750
      axis 0.0 0.0 0.0 xyz
      dof rx ry rz
   end
:hierarchy
   begin
      root Spine_dum LeftUpLeg_dum RightUpLeg_dum
      Spine_dum Spine
      LeftUpLeg_dum LeftUpLeg
      RightUpLeg_dum RightUpLeg
      Spine Spine_dum1 Spine_dum2 Spine_dum3
      Spine_dum1 Head
      Spine_dum2 LeftShoulder
      Spine_dum3 RightShoulder
      LeftShoulder LeftArm
      LeftArm LeftForeArm
      LeftForeArm LeftHand
      LeftHand LeftHand_dum1 LeftHand_dum2
      LeftHand_dum1 LeftHandThumb1
      RightShoulder RightArm
      RightArm RightForeArm
      RightForeArm RightHand
      RightHand RightHand_dum1 RightHand_dum2
      RightHand_dum1 RightHandThumb1
      LeftUpLeg LeftLeg
      LeftLeg LeftFoot
      LeftFoot LeftToeBase
      RightUpLeg RightLeg
      RightLeg RightFoot
      RightFoot RightToeBase
   end

# File created by Blade
# Date/Time:  Tue Jan 27 20:07:51 2015
# Frame Rate: 120.000 fps
#------------------------------------------------------
:FULLY-SPECIFIED
:DEGREES
1154
root 6.053890 32.416756 -4.446523 -3.971333 2.100194 -3.998715
Spine 4.733523 7.141768 0.351534
Head 22.567484 -9.268031 2.096140
LeftShoulder -14.922602 -1.184802 30.044565
LeftArm -3.554796 -9.506628 -77.924093
LeftForeArm -12.943521 -0.000000 114.064345
LeftHand 11.652110 0.000000 8.112851
LeftHandThumb1 -26.253704 0.000000 33.147579
RightShoulder -18.972858 -17.959095 -20.827352
RightArm 11.586551 -23.995119 92.007899
RightForeArm -14.995846 -0.000000 23.419002
RightHand 16.954314 -0.000000 2.491280
RightHandThumb1 -24.326973 -0.000000 -32.862282
LeftUpLeg 9.982607 -2.114704 -4.625487
LeftLeg -1.848671 -0.000000 0.000000
LeftFoot -14.948466 13.622133 -15.329041
LeftToeBase 20.024431 -0.000000 -0.000000
RightUpLeg -38.109294 6.250505 11.112611
RightLeg 78.018503 -0.000000 -0.000000
RightFoot 1.644290 -30.062261 18.759159
RightToeBase 12.787561 -0.000000 -0.000000
1155
root 6.050475 32.418215 -4.459614 -3.989382 1.933028 -4.022132
Spine 4.761362 7.247786 0.364291
Head 22.624529 -9.223516 2.153393
LeftShoulder -14.922146 -1.159188 30.075499
LeftArm -3.549441 -9.488668 -77.917246
LeftForeArm -12.952205 0.000000 114.073663
LeftHand 11.644567 -0.000000 8.149923
LeftHandThumb1 -26.253704 0.000000 33.147579
RightShoulder -18.993600 -17.956210 -20.778261
RightArm 11.631473 -24.002366 91.998136
RightForeArm -15.010360 -0.000000 23.351119
RightHand 16.990601 -0.000000 1.776239
RightHandThumb1 -24.326973 -0.000000 -32.862282
LeftUpLeg 9.992717 -2.099349 -4.612555
LeftLeg -1.854219 -0.000000 0.000000
LeftFoot -14.932164 13.678316 -15.417912
LeftToeBase 19.958139 -0.000000 -0.000000
RightUpLeg -38.232649 6.422655 10.966082
RightLeg 75.279467 -0.000000 -0.000000
RightFoot 1.277872 -29.947136 18.564961
RightToeBase 13.715017 -0.000000 -0.000000
1156
root 6.047588 32.420052 -4.473088 -4.020097 1.804992 -4.045384
Spine 4.809992 7.301903 0.378644
Head 22.671528 -9.191132 2.190261
LeftShoulder -14.932526 -1.118904 30.090209
LeftArm -3.527426 -9.473549 -77.897662
LeftForeArm -12.940704 -0.000000 114.091177
LeftHand 11.644442 -0.000000 8.178531
LeftHandThumb1 -26.253704 0.000000 33.147579
RightShoulder -19.013316 -17.888855 -20.764512
RightArm 11.611479 -24.011339 92.017504
RightForeArm -14.935925 -0.000000 23.310444
RightHand 16.943424 -0.000000 2.335122
RightHandThumb1 -24.326973 -0.000000 -32.862282
LeftUpLeg 10.012828 -2.110080 -4.598573
LeftLeg -1.875773 -0.000000 0.000000
LeftFoot -14.901842 13.752797 -15.515064
LeftToeBase 19.706352 -0.000000 -0.000000
RightUpLeg -38.302510 6.564336 10.758856
RightLeg 72.544258 -0.000000 -0.000000
RightFoot 1.508750 -28.887922 18.554283
RightToeBase 13.924490 -0.000000 -0.000000
1157
root 6.044315 32.422088 -4.485130 -4.035059 1.650616 -4.070767
Spine 4.827412 7.374230 0.394248
Head 22.742266 -9.133811 2.232778
LeftShoulder -14.932969 -1.097194 30.102651
LeftArm -3.546939 -9.450265 -77.846138
LeftForeArm -12.973569 -0.000000 114.117351
LeftHand 11.617354 0.000000 8.172607
LeftHandThumb1 -26.253704 0.000000 33.147579
RightShoulder -18.998790 -17.883678 -20.742687
RightArm 11.628438 -24.014055 92.020384
RightForeArm -14.943446 -0.000000 23.284762
RightHand 16.981870 -0.000000 2.434279
RightHandThumb1 -24.326973 -0.000000 -32.862282
LeftUpLeg 10.035159 -2.072321 -4.577238
LeftLeg -1.918844 -0.000000 0.000000
LeftFoot -14.895540 13.895170 -15.452466
LeftToeBase 19.706312 -0.000000 -0.000000
RightUpLeg -38.308985 6.730962 10.587642
RightLeg 69.682663 -0.000000 -0.000000
RightFoot 2.582574 -27.743376 17.881952
RightToeBase 13.798823 -0.000000 -0.000000
1158
root 6.042001 32.424784 -4.497406 -4.048211 1.507496 -4.097357
Spine 4.849092 7.402852 0.419669
Head 22.799453 -9.047042 2.249330
LeftShoulder -14.980158 -1.023320 30.097465
LeftArm -3.511508 -9.423222 -77.813771
LeftForeArm -12.974839 -0.000000 114.117518
LeftHand 11.643971 0.000000 8.193206
LeftHandThumb1 -26.253704 0.000000 33.147579
RightShoulder -18.978373 -17.871540 -20.743880
RightArm 11.653504 -24.032066 92.029976
RightForeArm -15.078235 -0.000000 23.238365
RightHand 17.056670 -0.000000 2.684097
RightHandThumb1 -24.326973 -0.000000 -32.862282
LeftUpLeg 10.052880 -2.013856 -4.547238
LeftLeg -1.967035 -0.000000 0.000000
LeftFoot -14.897125 13.974686 -15.308085
LeftToeBase 20.715168 -0.000000 -0.000000
RightUpLeg -38.273480 6.900869 10.413792
RightLeg 66.793549 -0.000000 -0.000000
RightFoot 3.690415 -26.692893 17.248217
RightToeBase 13.589642 -0.000000 -0.000000
1159
root 6.041887 32.427304 -4.509955 -4.069762 1.394224 -4.123404
Spine 4.886902 7.399585 0.448107
Head 22.838276 -8.971960 2.264824
LeftShoulder -15.024379 -0.950797 30.086477
LeftArm -3.473376 -9.390967 -77.777677
LeftForeArm -13.002124 -0.000000 114.130301
LeftHand 11.616832 -0.000000 8.220113
LeftHandThumb1 -26.253704 0.000000 33.147579
RightShoulder -18.966399 -17.855008 -20.743116
RightArm 11.694775 -24.083492 92.011454
RightForeArm -15.077884 -0.000000 23.196331
RightHand 16.958452 0.000000 2.172711
RightHandThumb1 -24.326973 -0.000000 -32.862282
LeftUpLeg 10.080220 -1.966435 -4.526197
LeftLeg -2.028155 -0.000000 0.000000
LeftFoot -14.916475 14.069961 -15.489723
LeftToeBase 20.550323 -0.000000 -0.000000
RightUpLeg -38.194857 7.020044 10.230037
RightLeg 63.871703 -0.000000 -0.000000
RightFoot 4.518710 -25.606097 17.039208
RightToeBase 14.968394 -0.000000 -0.000000
1160
root 6.042099 32.429490 -4.521305 -4.086245 1.300534 -4.147439
Spine 4.912579 7.420867 0.469092
Head 22.872367 -8.945461 2.304873
LeftShoulder -15.048534 -0.844333 30.100497
LeftArm -3.372612 -9.359803 -77.793344
LeftForeArm -12.991069 -0.000000 114.104915
LeftHand 11.645499 -0.000000 8.196040
LeftHandThumb1 -26.253704 0.000000 33.147579
RightShoulder -18.988792 -17.844811 -20.748557
RightArm 11.704344 -24.119846 92.016539
RightForeArm -14.994814 -0.000000 23.173647
RightHand 16.909890 -0.000000 2.383766
RightHandThumb1 -24.326973 -0.000000 -32.862282
LeftUpLeg 10.101540 -1.921966 -4.505995
LeftLeg -2.067075 -0.000000 0.000000
LeftFoot -14.895734 14.127002 -15.484433
LeftToeBase 20.414661 -0.000000 -0.000000
RightUpLeg -38.058174 7.103528 10.083286
RightLeg 60.854447 -0.000000 -0.000000
RightFoot 5.586543 -24.863231 16.385705
RightToeBase 14.889603 -0.000000 -0.000000
1161
root 6.042773 32.431476 -4.535269 -4.080099 1.215665 -4.164109
Spine 4.919548 7.420800 0.474023
Head 22.893104 -8.897030 2.357167
LeftShoulder -15.082585 -0.811679 30.132434
LeftArm -3.345556 -9.306832 -77.788238
LeftForeArm -13.012973 -0.000000 114.084467
LeftHand 11.633468 -0.000000 8.242313
LeftHandThumb1 -26.253704 0.000000 33.147579
RightShoulder -18.971902 -17.782768 -20.766192
RightArm 11.653441 -24.142632 92.033987
RightForeArm -15.031425 -0.000000 23.143561
RightHand 16.925417 0.000000 2.383091
RightHandThumb1 -24.326973 -0.000000 -32.862282
LeftUpLeg 10.089792 -1.873840 -4.492022
LeftLeg -2.093998 -0.000000 0.000000
LeftFoot -14.876898 14.184534 -15.457851
LeftToeBase 20.450839 -0.000000 -0.000000
RightUpLeg -37.906452 7.176891 9.931138
RightLeg 57.780815 -0.000000 -0.000000
RightFoot 6.466446 -24.485117 15.948090
RightToeBase 14.724884 -0.000000 -0.000000
1162
root 6.043828 32.433129 -4.548638 -4.081165 1.164260 -4.179810
Spine 4.936571 7.399312 0.482166
Head 22.898999 -8.869965 2.394703
LeftShoulder -15.092624 -0.785629 30.145065
LeftArm -3.322667 -9.260694 -77.757034
LeftForeArm -13.038254 -0.000000 114.066319
LeftHand 11.678997 -0.000000 8.290965
LeftHandThumb1 -26.253704 0.000000 33.147579
RightShoulder -18.942653 -17.773431 -20.787227
RightArm 11.606883 -24.085971 92.076518
RightForeArm -15.151174 -0.000000 23.154158
RightHand 16.983890 -0.000000 2.811090
RightHandThumb1 -24.326973 -0.000000 -32.862282
LeftUpLeg 10.083182 -1.857296 -4.485192
LeftLeg -2.113129 -0.000000 0.000000
LeftFoot -14.872247 14.222057 -15.448044
LeftToeBase 20.733980 -0.000000 -0.000000
RightUpLeg -37.701747 7.257805 9.767851
RightLeg 54.649283 -0.000000 -0.000000
RightFoot 7.095533 -24.455322 15.993540
RightToeBase 15.454828 -0.000000 -0.000000
1163
root 6.045207 32.434118 -4.561897 -4.081429 1.141342 -4.192755
Spine 4.954268 7.310591 0.483983
Head 22.891588 -8.802623 2.428132
LeftShoulder -15.139139 -0.757740 30.158123
LeftArm -3.312061 -9.210530 -77.711618
LeftForeArm -13.084269 -0.000000 114.046875
LeftHand 11.688312 -0.000000 8.336709
LeftHandThumb1 -26.253704 0.000000 33.147579
RightShoulder -18.882429 -17.773646 -20.801325
RightArm 11.606116 -24.066196 92.087557
RightForeArm -15.062846 0.000000 23.154829
RightHand 17.007604 0.000000 2.429358
RightHandThumb1 -24.326973 -0.000000 -32.862282
LeftUpLeg 10.065206 -1.828353 -4.477437
LeftLeg -2.113669 -0.000000 0.000000
LeftFoot -14.837759 14.236749 -15.370554
LeftToeBase 20.644331 -0.000000 -0.000000
RightUpLeg -37.483392 7.369411 9.579883
RightLeg 51.552426 -0.000000 -0.000000
RightFoot 8.060722 -24.509756 15.788107
RightToeBase 15.227385 -0.000000 -0.000000
1164
root 6.048184 32.434233 -4.578794 -4.060376 1.132210 -4.191602
Spine 4.951460 7.375799 0.464650
Head 22.876499 -8.921281 2.507703
LeftShoulder -15.035092 -0.845900 30.212227
LeftArm -3.341303 -9.166999 -77.691792
LeftForeArm -13.157860 -0.000000 114.022570
LeftHand 11.692046 -0.000000 8.384176
LeftHandThumb1 -26.253704 0.000000 33.147579
RightShoulder -18.981407 -17.815422 -20.753948
RightArm 11.603731 -24.089532 92.076160
RightForeArm -15.004128 0.000000 23.149891
RightHand 16.963498 -0.000000 2.222197
RightHandThumb1 -24.326973 -0.000000 -32.862282
LeftUpLeg 10.010957 -1.798460 -4.476029
LeftLeg -2.120765 -0.000000 0.000000
LeftFoot -14.900109 14.221515 -15.549745
LeftToeBase 20.981171 -0.000000 -0.000000
RightUpLeg -37.259621 7.483427 9.368108
RightLeg 48.419363 -0.000000 -0.000000
RightFoot 9.213322 -24.573743 15.466397
RightToeBase 15.666164 -0.000000 -0.000000
1165
root 6.048984 32.435573 -4.595317 -4.023858 1.130330 -4.210766
Spine 4.929126 7.356078 0.470522
Head 22.859979 -8.946951 2.544791
LeftShoulder -14.993197 -0.945845 30.240201
LeftArm -3.424349 -9.128700 -77.634862
LeftForeArm -13.242990 -0.000000 114.003462
LeftHand 11.669524 0.000000 8.482728
LeftHandThumb1 -26.253704 0.000000 33.147579
RightShoulder -19.003631 -17.881336 -20.720889
RightArm 11.622648 -24.037970 92.073407
RightForeArm -15.056353 -0.000000 23.173998
RightHand 16.976287 -0.000000 2.200711
RightHandThumb1 -24.326973 -0.000000 -32.862282
LeftUpLeg 9.935241 -1.755028 -4.450439
LeftLeg -2.103049 -0.000000 0.000000
LeftFoot -14.885786 14.180985 -15.537070
LeftToeBase 20.989877 -0.000000 -0.000000
RightUpLeg -37.018946 7.645397 9.149070
RightLeg 45.225663 -0.000000 -0.000000
RightFoot 10.641493 -24.359714 14.835758
RightToeBase 16.542145 -0.000000 -0.000000
